HIERARCHY
ROOT CG
{
	OFFSET 0.000000 -0.000000 27.772259
	CHANNELS 6 Xposition Yposition Zposition Xrotation Yrotation Zrotation
	JOINT Pelvis
	{
		OFFSET 0.000000 0.000000 0.000000
		CHANNELS 3 Xrotation Yrotation Zrotation
		JOINT Spine
		{
			OFFSET -0.000017 -10.490843 -0.495483
			CHANNELS 3 Xrotation Yrotation Zrotation
			JOINT Spine1
			{
				OFFSET -0.000010 -22.678980 0.018061
				CHANNELS 3 Xrotation Yrotation Zrotation
				JOINT Spine2
				{
					OFFSET -0.000010 -22.678967 0.018061
					CHANNELS 3 Xrotation Yrotation Zrotation
					JOINT Spine3
					{
						OFFSET -0.000010 -22.678982 0.018059
						CHANNELS 3 Xrotation Yrotation Zrotation
						JOINT Neck
						{
							OFFSET -0.000012 -22.678986 -1.289251
							CHANNELS 3 Xrotation Yrotation Zrotation
							JOINT Neck1
							{
								OFFSET -0.000007 -16.255905 0.012947
								CHANNELS 3 Xrotation Yrotation Zrotation
								JOINT Head
								{
									OFFSET -0.000005 -10.784607 -0.287502
									CHANNELS 3 Xrotation Yrotation Zrotation
									JOINT Jaw01
									{
										OFFSET 0.000031 7.782959 5.073944
										CHANNELS 3 Xrotation Yrotation Zrotation
										JOINT Jaw02
										{
											OFFSET 0.000004 -34.927139 -18.883980
											CHANNELS 3 Xrotation Yrotation Zrotation
											End Site
											{
												OFFSET -0.000170 8.372803 -38.812450
											}
										}
									}
									JOINT Nose
									{
										OFFSET -0.000002 -25.700912 7.222265
										CHANNELS 3 Xrotation Yrotation Zrotation
										End Site
										{
											OFFSET -0.000090 0.641281 -21.715439
										}
									}
									JOINT L_EyeSocket
									{
										OFFSET 7.352326 -19.832718 14.164183
										CHANNELS 3 Xrotation Yrotation Zrotation
										JOINT L_Eye
										{
											OFFSET -0.000868 -0.001053 0.016003
											CHANNELS 3 Xrotation Yrotation Zrotation
											End Site
											{
												OFFSET -0.001505 -0.001846 0.027969
											}
										}
										JOINT L_Eyelid_Top
										{
											OFFSET -0.001004 -0.002625 0.032516
											CHANNELS 3 Xrotation Yrotation Zrotation
											End Site
											{
												OFFSET -0.013218 0.005753 0.024086
											}
										}
										JOINT L_Eyelid_Bottom
										{
											OFFSET -0.001194 -0.002777 0.035381
											CHANNELS 3 Xrotation Yrotation Zrotation
											End Site
											{
												OFFSET -0.010032 0.008636 -0.024754
											}
										}
									}
									JOINT R_EyeSocket
									{
										OFFSET -7.352252 -19.832748 14.164206
										CHANNELS 3 Xrotation Yrotation Zrotation
										JOINT R_Eye
										{
											OFFSET 0.000875 -0.001068 0.015991
											CHANNELS 3 Xrotation Yrotation Zrotation
											End Site
											{
												OFFSET 0.001505 -0.001846 0.027962
											}
										}
										JOINT R_Eyelid_Top
										{
											OFFSET 0.001021 -0.002625 0.032516
											CHANNELS 3 Xrotation Yrotation Zrotation
											End Site
											{
												OFFSET 0.013214 0.005753 0.024078
											}
										}
										JOINT R_Eyelid_Bottom
										{
											OFFSET 0.001170 -0.002762 0.035366
											CHANNELS 3 Xrotation Yrotation Zrotation
											End Site
											{
												OFFSET 0.010029 0.008636 -0.024746
											}
										}
									}
								}
								JOINT Neck_Fat
								{
									OFFSET 0.000044 -9.595100 -17.491512
									CHANNELS 3 Xrotation Yrotation Zrotation
									End Site
									{
										OFFSET -0.000036 15.369423 -0.000007
									}
								}
							}
						}
						JOINT L_Clavicle
						{
							OFFSET 4.567107 -11.666092 -3.750029
							CHANNELS 3 Xrotation Yrotation Zrotation
							JOINT L_UpperArm
							{
								OFFSET 20.725666 -0.000053 -0.000032
								CHANNELS 3 Xrotation Yrotation Zrotation
								JOINT L_Forearm
								{
									OFFSET 5.265112 -0.585754 -20.155697
									CHANNELS 3 Xrotation Yrotation Zrotation
									JOINT L_Hand
									{
										OFFSET 2.653017 -10.877708 -16.383667
										CHANNELS 3 Xrotation Yrotation Zrotation
										JOINT L_Finger0
										{
											OFFSET -4.206146 -4.328911 -5.034346
											CHANNELS 3 Xrotation Yrotation Zrotation
											JOINT L_Finger01
											{
												OFFSET 0.084272 -1.788536 -4.181065
												CHANNELS 3 Xrotation Yrotation Zrotation
												End Site
												{
													OFFSET 3.261885 3.094673 -0.685818
												}
											}
										}
										JOINT L_Finger1
										{
											OFFSET -1.039112 -6.775742 -3.499998
											CHANNELS 3 Xrotation Yrotation Zrotation
											JOINT L_Finger11
											{
												OFFSET 1.320335 -3.040672 -6.425793
												CHANNELS 3 Xrotation Yrotation Zrotation
												End Site
												{
													OFFSET -1.244579 6.832077 -2.013330
												}
											}
										}
										JOINT L_Finger2
										{
											OFFSET 2.531296 -5.656487 -3.286415
											CHANNELS 3 Xrotation Yrotation Zrotation
											JOINT L_Finger21
											{
												OFFSET 1.991665 -2.402016 -5.957748
												CHANNELS 3 Xrotation Yrotation Zrotation
												End Site
												{
													OFFSET -2.793068 5.800873 -1.944178
												}
											}
										}
										JOINT L_Finger3
										{
											OFFSET 5.474075 -3.302338 -2.655975
											CHANNELS 3 Xrotation Yrotation Zrotation
											JOINT L_Finger31
											{
												OFFSET 2.026943 -1.267532 -5.961166
												CHANNELS 3 Xrotation Yrotation Zrotation
												End Site
												{
													OFFSET -4.375172 4.343658 -1.800320
												}
											}
										}
										JOINT L_Finger4
										{
											OFFSET 4.825745 1.085899 -2.321970
											CHANNELS 3 Xrotation Yrotation Zrotation
											JOINT L_Finger41
											{
												OFFSET 3.358261 -1.829651 -3.744434
												CHANNELS 3 Xrotation Yrotation Zrotation
												End Site
												{
													OFFSET -3.843296 2.955200 -2.267633
												}
											}
										}
									}
								}
							}
						}
						JOINT R_Clavicle
						{
							OFFSET -4.567111 -11.666092 -3.750036
							CHANNELS 3 Xrotation Yrotation Zrotation
							JOINT R_UpperArm
							{
								OFFSET -20.725670 -0.000031 0.000038
								CHANNELS 3 Xrotation Yrotation Zrotation
								JOINT R_Forearm
								{
									OFFSET -5.265285 -0.585762 -20.155655
									CHANNELS 3 Xrotation Yrotation Zrotation
									JOINT R_Hand
									{
										OFFSET -2.653147 -10.877739 -16.383663
										CHANNELS 3 Xrotation Yrotation Zrotation
										JOINT R_Finger0
										{
											OFFSET 4.206116 -4.328888 -5.034388
											CHANNELS 3 Xrotation Yrotation Zrotation
											JOINT R_Finger01
											{
												OFFSET -0.084324 -1.788544 -4.181051
												CHANNELS 3 Xrotation Yrotation Zrotation
												End Site
												{
													OFFSET -3.261890 3.094666 -0.685791
												}
											}
										}
										JOINT R_Finger1
										{
											OFFSET 1.039101 -6.775711 -3.499994
											CHANNELS 3 Xrotation Yrotation Zrotation
											JOINT R_Finger11
											{
												OFFSET -1.320374 -3.040672 -6.425779
												CHANNELS 3 Xrotation Yrotation Zrotation
												End Site
												{
													OFFSET 1.244556 6.832077 -2.013342
												}
											}
										}
										JOINT R_Finger2
										{
											OFFSET -2.531307 -5.656464 -3.286409
											CHANNELS 3 Xrotation Yrotation Zrotation
											JOINT R_Finger21
											{
												OFFSET -1.991707 -2.402016 -5.957708
												CHANNELS 3 Xrotation Yrotation Zrotation
												End Site
												{
													OFFSET 2.793037 5.800858 -1.944197
												}
											}
										}
										JOINT R_Finger3
										{
											OFFSET -5.474091 -3.302330 -2.655947
											CHANNELS 3 Xrotation Yrotation Zrotation
											JOINT R_Finger31
											{
												OFFSET -2.026993 -1.267532 -5.961157
												CHANNELS 3 Xrotation Yrotation Zrotation
												End Site
												{
													OFFSET 4.375156 4.343674 -1.800358
												}
											}
										}
										JOINT R_Finger4
										{
											OFFSET -4.825756 1.085922 -2.321926
											CHANNELS 3 Xrotation Yrotation Zrotation
											JOINT R_Finger41
											{
												OFFSET -3.358307 -1.829651 -3.744390
												CHANNELS 3 Xrotation Yrotation Zrotation
												End Site
												{
													OFFSET 3.843273 2.955208 -2.267666
												}
											}
										}
									}
								}
							}
						}
					}
				}
			}
		}
		JOINT Tail01
		{
			OFFSET -0.000010 10.922326 -0.017508
			CHANNELS 3 Xrotation Yrotation Zrotation
			JOINT Tail02
			{
				OFFSET -0.000022 21.986111 0.000013
				CHANNELS 3 Xrotation Yrotation Zrotation
				JOINT Tail03
				{
					OFFSET -0.000022 21.986118 0.000002
					CHANNELS 3 Xrotation Yrotation Zrotation
					JOINT Tail04
					{
						OFFSET -0.000022 21.986122 0.000004
						CHANNELS 3 Xrotation Yrotation Zrotation
						JOINT Tail05
						{
							OFFSET -0.000022 21.986099 0.000010
							CHANNELS 3 Xrotation Yrotation Zrotation
							JOINT Tail06
							{
								OFFSET -0.000022 21.986099 0.000006
								CHANNELS 3 Xrotation Yrotation Zrotation
								JOINT Tail07
								{
									OFFSET -0.000022 21.986099 0.000000
									CHANNELS 3 Xrotation Yrotation Zrotation
									JOINT Tail08
									{
										OFFSET -0.000022 21.984848 0.000050
										CHANNELS 3 Xrotation Yrotation Zrotation
										JOINT Tail09
										{
											OFFSET -0.000025 21.926025 -1.606211
											CHANNELS 3 Xrotation Yrotation Zrotation
											JOINT Tail10
											{
												OFFSET -0.000027 21.750092 -3.203882
												CHANNELS 3 Xrotation Yrotation Zrotation
												End Site
												{
													OFFSET -0.000036 4.767395 21.461668
												}
											}
										}
									}
								}
							}
						}
					}
				}
			}
		}
		JOINT L_Thigh
		{
			OFFSET 24.788780 0.000021 -0.000034
			CHANNELS 3 Xrotation Yrotation Zrotation
			JOINT L_Calf
			{
				OFFSET 4.720837 4.161326 -21.049969
				CHANNELS 3 Xrotation Yrotation Zrotation
				JOINT L_Foot
				{
					OFFSET 2.154160 21.114433 -11.949743
					CHANNELS 3 Xrotation Yrotation Zrotation
					JOINT L_Toe0
					{
						OFFSET 4.557564 9.251841 -8.735286
						CHANNELS 3 Xrotation Yrotation Zrotation
						End Site
						{
							OFFSET 4.555542 -12.646044 1.018752
						}
					}
					JOINT L_Toe1
					{
						OFFSET 2.346291 5.845602 -11.687160
						CHANNELS 3 Xrotation Yrotation Zrotation
						End Site
						{
							OFFSET 5.347954 -12.298279 1.365644
						}
					}
					JOINT L_Toe2
					{
						OFFSET -0.356020 3.902458 -12.541145
						CHANNELS 3 Xrotation Yrotation Zrotation
						End Site
						{
							OFFSET 3.916235 -12.806129 1.542549
						}
					}
					JOINT L_Toe3
					{
						OFFSET -4.603447 3.183935 -12.435249
						CHANNELS 3 Xrotation Yrotation Zrotation
						End Site
						{
							OFFSET 3.810858 -12.587427 2.957583
						}
					}
					JOINT L_Toe4
					{
						OFFSET -7.144358 6.231495 -10.072764
						CHANNELS 3 Xrotation Yrotation Zrotation
						End Site
						{
							OFFSET 3.810858 -12.587425 2.957585
						}
					}
				}
			}
		}
		JOINT R_Thigh
		{
			OFFSET -24.788780 -0.000024 0.000034
			CHANNELS 3 Xrotation Yrotation Zrotation
			JOINT R_Calf
			{
				OFFSET -4.720922 4.161324 -21.049952
				CHANNELS 3 Xrotation Yrotation Zrotation
				JOINT R_Foot
				{
					OFFSET -2.154238 21.114414 -11.949730
					CHANNELS 3 Xrotation Yrotation Zrotation
					JOINT R_Toe0
					{
						OFFSET -4.557598 9.251823 -8.735270
						CHANNELS 3 Xrotation Yrotation Zrotation
						End Site
						{
							OFFSET -4.555508 -12.646051 1.018756
						}
					}
					JOINT R_Toe1
					{
						OFFSET -2.346325 5.845589 -11.687157
						CHANNELS 3 Xrotation Yrotation Zrotation
						End Site
						{
							OFFSET -5.347919 -12.298286 1.365654
						}
					}
					JOINT R_Toe2
					{
						OFFSET 0.355980 3.902462 -12.541145
						CHANNELS 3 Xrotation Yrotation Zrotation
						End Site
						{
							OFFSET -3.916199 -12.806131 1.542559
						}
					}
					JOINT R_Toe3
					{
						OFFSET 4.603411 3.183941 -12.435266
						CHANNELS 3 Xrotation Yrotation Zrotation
						End Site
						{
							OFFSET -3.810825 -12.587429 2.957591
						}
					}
					JOINT R_Toe4
					{
						OFFSET 7.144323 6.231503 -10.072779
						CHANNELS 3 Xrotation Yrotation Zrotation
						End Site
						{
							OFFSET -3.810825 -12.587433 2.957584
						}
					}
				}
			}
		}
	}
}
MOTION
Frames: 4
Frame Time: 0.033333
0.000000 -0.000000 48.000000 0.000000 0.000000 -0.000082 -13.074608 -3.625208 -19.142572 12.323501 7.051134 3.372062 0.700205 1.134047 16.447828 -0.368951 0.880367 16.423986 -5.522191 -0.057167 16.424144 4.130209 0.068122 15.284509 -0.107546 -0.050437 15.294441 1.889753 -1.338535 19.641981 -9.112507 -0.347359 0.406924 0.000007 0.000000 0.000000 0.000021 0.000000 -0.000006 -0.000006 0.000008 -0.000015 0.000100 -0.000062 0.000002 0.000001 -0.000003 -0.000003 0.000008 0.000008 -0.000002 0.000001 0.000000 -0.000000 0.000099 0.000062 -0.000001 0.000001 -0.000004 -0.000000 0.000009 -0.000013 0.000001 -0.110956 -0.000000 0.000002 -0.000159 4.000134 6.051579 19.836249 -7.491123 -7.523414 -12.336134 2.276840 -3.060605 -55.861552 -20.394404 4.347012 -1.232397 41.958860 36.971298 0.177210 -0.191936 0.025065 27.987487 12.045254 -7.978726 -20.876420 -3.912210 -2.970240 27.400185 5.200984 -6.497696 -32.159744 -14.320667 -8.084783 18.096325 -10.525803 -11.290777 -18.679724 -18.049530 -5.076565 15.001945 -27.465434 -4.987964 0.471522 0.683111 0.086934 0.000570 11.903052 -7.421835 33.046962 27.731338 39.856633 -34.648819 -7.890551 7.156945 -47.570116 -13.259174 -11.373677 22.541040 -29.340071 -15.054469 44.009610 26.352485 -27.415717 45.452443 -10.853877 7.997433 34.082801 -7.876827 -1.267861 43.529687 -16.449180 7.951326 14.893419 -7.954983 -0.815247 24.597811 -12.409855 7.697452 19.316899 -19.948006 1.198230 18.374553 -14.305168 2.531236 26.591788 -36.676736 3.365173 -1.634390 0.031351 0.139605 -2.034794 1.863452 -1.366932 -2.070743 2.060203 -3.141222 0.003959 2.792956 -5.654961 4.796045 2.824956 -4.103344 6.876867 1.737437 -6.223872 7.610335 0.369337 -12.876410 4.797215 -2.460318 -22.789017 0.560139 -4.150197 -21.376911 1.071748 -11.199142 -21.834146 -22.038112 -7.654612 24.389822 48.872022 5.764038 9.432540 -68.745116 7.204617 -19.667648 45.858184 26.415376 5.832813 56.430640 32.128865 2.701765 67.673760 38.171332 1.612805 74.130884 37.984779 -15.474321 46.840758 38.432764 -2.984384 -41.809616 -11.847769 19.566130 32.449433 -2.932485 -6.841904 -52.611902 -12.480182 23.721057 -1.610631 6.830021 -0.319975 8.153502 -0.111864 -1.097670 16.916867 -7.465714 -3.199858 20.837883 -4.387902 8.102978 -2.826052 -11.561280 8.935560 
0.000000 -0.000000 48.553719 0.000000 0.000000 -0.000082 -13.126573 -3.296309 -20.458046 12.936649 6.724910 3.261940 0.668220 1.424453 17.292951 -0.246672 1.170496 17.256379 -5.387911 0.243905 17.260901 3.301404 0.058327 14.799077 -0.567538 -0.061878 14.807828 2.129124 -0.818020 19.439803 -9.284912 -0.341070 0.391113 0.000013 0.000000 -0.000000 0.000021 0.000000 -0.000006 -0.000005 0.000007 -0.000015 0.000101 -0.000062 0.000004 0.000003 -0.000003 0.000000 0.000009 0.000010 0.000003 0.000000 0.000000 -0.000003 0.000098 0.000062 -0.000002 0.000001 -0.000002 -0.000003 0.000007 -0.000014 -0.000003 -0.098655 0.000000 0.000001 -0.000016 3.508522 3.891107 18.007604 -5.602787 -8.062707 -12.693574 2.352689 -3.142043 -54.497915 -20.348880 2.917077 -1.232409 41.958866 36.971305 0.177234 -0.191917 0.025056 27.987484 12.045256 -7.978726 -20.876383 -3.912268 -2.970433 27.400192 5.201002 -6.497701 -32.159734 -14.320673 -8.084811 18.096325 -10.525805 -11.290779 -18.679726 -18.049531 -5.076568 15.001942 -27.465439 -4.987961 0.471525 0.683118 0.086941 0.000701 10.512458 -3.494199 33.456302 23.313941 36.616094 -33.949332 -7.691843 7.062457 -47.405300 -13.657131 -6.179706 20.698902 -30.048301 -17.131948 39.633983 25.106061 -24.192072 43.961485 -10.776417 7.538978 29.554662 -6.812358 -1.328475 42.115452 -15.509575 7.699099 11.135996 -5.944560 -0.809005 24.033597 -10.771567 8.420555 15.996930 -16.719186 0.512385 17.940954 -11.283490 3.315458 23.886317 -33.696653 2.253774 -1.634775 0.032022 0.140861 -2.017122 1.862049 -1.358816 -1.928650 2.038326 -2.878940 -0.358106 2.692007 -5.224076 3.919774 2.808671 -2.999551 6.482086 1.700149 -4.335774 7.874569 0.574679 -10.770623 6.200685 -2.446273 -21.504156 1.654070 -4.519041 -21.748046 0.755090 -12.118801 -23.630773 -21.887541 -7.458627 28.305760 45.873675 5.192790 9.020619 -64.330191 2.311009 -13.849816 43.275194 25.467392 5.524442 53.009347 30.687111 2.967862 63.614579 36.863306 2.611838 69.729483 36.938715 -13.883147 44.483455 37.462584 -2.841631 -40.463427 -12.814789 16.658416 31.196090 -2.749110 -6.613372 -51.862880 -12.128165 26.954334 -1.610632 6.830016 -0.319972 8.153502 -0.111863 -1.097671 16.916871 -7.465714 -3.199858 20.837883 -4.387902 8.102980 -2.826053 -11.561283 8.935558 
0.000000 -0.000000 49.089157 0.000000 0.000000 -0.000082 -13.168999 -2.784672 -21.818380 13.477600 6.261182 3.334434 0.629391 1.708550 18.062755 0.150720 1.479397 18.012445 -4.981120 0.563071 18.022228 2.201639 0.061415 14.413627 -1.284589 -0.067525 14.420529 2.504101 -0.030336 19.159468 -9.546405 -0.336506 0.381763 0.000009 0.000000 -0.000000 0.000021 0.000000 -0.000007 -0.000004 0.000007 -0.000010 0.000101 -0.000062 0.000001 0.000000 -0.000005 -0.000003 0.000007 0.000009 0.000005 0.000000 -0.000000 -0.000000 0.000100 0.000062 -0.000001 0.000003 -0.000002 -0.000000 0.000011 -0.000014 -0.000001 -0.085125 -0.000000 -0.000002 0.000145 3.016830 1.730588 15.547373 -3.460716 -8.539627 -12.628756 2.338898 -3.127306 -53.317365 -20.267502 1.474433 -1.232405 41.958870 36.971298 0.177318 -0.191836 0.025041 27.987486 12.045257 -7.978724 -20.876297 -3.912416 -2.970970 27.400193 5.201008 -6.497700 -32.159720 -14.320704 -8.084888 18.096327 -10.525797 -11.290780 -18.679722 -18.049530 -5.076568 15.001944 -27.465432 -4.987967 0.471524 0.683116 0.086934 0.000628 9.154036 0.577567 32.862035 18.955132 33.515175 -33.225554 -7.487456 6.962164 -47.279085 -14.069290 -0.810620 18.757359 -30.715665 -19.315324 35.264779 23.599185 -21.028138 42.427984 -10.683212 7.068830 24.904219 -5.714336 -1.302701 40.668883 -14.538841 7.461440 7.279518 -3.879996 -0.664644 23.431809 -9.097868 9.181063 12.673264 -13.362122 0.018992 17.453751 -8.180084 4.143890 21.262751 -30.588883 1.317945 -1.635657 0.032865 0.138972 -1.991986 1.861633 -1.436459 -1.712592 2.022367 -2.452830 -0.530491 2.598046 -4.852924 3.097041 2.753492 -2.204745 5.967381 1.633452 -2.766649 7.620075 0.936155 -8.697840 7.417099 -2.172007 -19.800597 3.091524 -4.723507 -21.460062 1.127444 -12.975201 -24.873648 -21.746880 -7.447406 32.194213 42.873845 4.643784 8.579628 -59.666217 -2.429744 -7.834586 38.149882 23.613521 4.776296 46.331857 27.776035 3.195407 55.781769 34.098289 4.213945 61.223213 34.576624 -11.081231 39.865270 35.512537 -2.708987 -38.875507 -13.855137 13.672966 29.276995 -2.478267 -6.256075 -50.709015 -11.867211 30.122319 -1.610631 6.830017 -0.319970 8.153504 -0.111864 -1.097666 16.916866 -7.465714 -3.199857 20.837879 -4.387909 8.102978 -2.826062 -11.561284 8.935563 
0.000000 -0.000000 49.560585 0.000000 0.000000 -0.000082 -13.203515 -2.240489 -23.346297 14.071251 5.835437 3.536648 0.582067 1.985653 18.852161 0.581284 1.800776 18.783562 -4.541012 0.894693 18.798608 0.978560 0.074489 14.026545 -2.057817 -0.066521 14.031132 2.974168 0.880141 18.859733 -9.844143 -0.332637 0.373901 0.000009 0.000000 0.000000 0.000021 0.000000 -0.000007 -0.000004 0.000007 -0.000013 0.000101 -0.000062 0.000001 -0.000003 -0.000003 -0.000003 0.000009 0.000010 0.000003 0.000000 -0.000000 -0.000000 0.000098 0.000062 -0.000001 -0.000000 -0.000002 -0.000000 0.000006 -0.000013 -0.000001 -0.070884 0.000000 0.000002 0.000063 2.525251 -0.429852 13.160992 -1.414389 -8.868725 -13.204759 2.462075 -3.257716 -51.660962 -20.303313 0.111587 -1.232402 41.958880 36.971305 0.177431 -0.191726 0.025017 27.987486 12.045259 -7.978726 -20.876181 -3.912631 -2.971758 27.400193 5.201009 -6.497703 -32.159693 -14.320730 -8.085017 18.096333 -10.525805 -11.290779 -18.679724 -18.049531 -5.076563 15.001949 -27.465434 -4.987964 0.471524 0.683118 0.086932 0.000251 7.816960 4.745395 31.691036 14.749319 30.371526 -32.484226 -7.279443 6.856805 -47.149376 -14.480674 4.683983 16.732978 -31.330163 -21.582230 30.956883 21.843278 -17.974550 40.864393 -10.574255 6.591346 20.165691 -4.598812 -1.184725 39.203425 -13.541667 7.249968 3.345215 -1.787468 -0.374639 22.796520 -7.401961 9.973190 9.352569 -9.913377 -0.273995 16.913768 -5.025550 5.011424 18.724388 -27.383922 0.556371 -1.636533 0.033655 0.134029 -1.958378 1.862369 -1.544852 -1.545073 2.015454 -1.712168 -0.453621 2.514330 -4.382964 2.582131 2.674926 -1.778182 5.441081 1.541647 -1.740651 6.608050 1.399511 -6.848717 7.998994 -1.627064 -17.667775 4.697508 -4.686065 -20.284914 2.389638 -13.797846 -25.317420 -21.635389 -7.537967 36.224082 39.872011 4.118526 8.110755 -57.160453 -6.728017 -5.074507 35.603905 22.711192 4.339416 43.063144 26.316772 3.164789 51.995553 32.656289 4.823827 57.116463 33.277471 -9.875134 37.599700 34.535106 -2.715362 -37.262258 -14.989962 10.908215 27.217631 -2.201293 -5.863153 -49.451253 -11.687458 33.188238 -1.610630 6.830017 -0.319970 8.153505 -0.111862 -1.097670 16.916871 -7.465715 -3.199858 20.837881 -4.387906 8.102981 -2.826061 -11.561290 8.935557 
